<svg xmlns="http://www.w3.org/2000/svg" x="0px" y="0px" width="50" height="50" fill="#a1a3a8" viewBox="0 0 48 48">
<path d="M 15.638672 6 C 12.527135 6 9.8339356 8.2268231 9.2519531 11.283203 L 7.9726562 18 L 6.5 18 C 6.053 18 5.6297031 18.199922 5.3457031 18.544922 C 5.0607031 18.888922 4.9433438 19.341297 5.0273438 19.779297 L 8.2539062 36.716797 C 8.8359063 39.778797 11.521672 42 14.638672 42 L 33.363281 42 C 36.480281 42 39.165047 39.778797 39.748047 36.716797 L 42.974609 19.779297 C 43.057609 19.341297 42.939297 18.888922 42.654297 18.544922 C 42.370297 18.199922 41.947 18 41.5 18 L 40.027344 18 L 38.748047 11.283203 C 38.166064 8.2268231 35.472865 6 32.361328 6 L 15.638672 6 z M 15.638672 9 L 32.361328 9 C 34.051791 9 35.484764 10.18413 35.800781 11.84375 A 1.50015 1.50015 0 0 0 35.800781 11.845703 L 36.972656 18 L 11.027344 18 L 12.199219 11.845703 A 1.50015 1.50015 0 0 0 12.199219 11.84375 C 12.515236 10.184177 13.948209 9 15.638672 9 z M 21.5 24 C 22.328 24 23 24.672 23 25.5 L 23 34.5 C 23 35.328 22.328 36 21.5 36 C 20.672 36 20 35.328 20 34.5 L 20 25.5 C 20 24.672 20.672 24 21.5 24 z M 26.5 24 C 27.328 24 28 24.672 28 25.5 L 28 34.5 C 28 35.328 27.328 36 26.5 36 C 25.672 36 25 35.328 25 34.5 L 25 25.5 C 25 24.672 25.672 24 26.5 24 z M 15.638672 24.007812 C 16.334557 24.07352 16.908859 24.613859 16.990234 25.333984 L 17.990234 34.333984 C 18.081234 35.156984 17.489016 35.898234 16.666016 35.990234 C 16.609016 35.996234 16.554047 36 16.498047 36 C 15.744047 36 15.095766 35.433016 15.009766 34.666016 L 14.009766 25.666016 C 13.918766 24.843016 14.510984 24.101766 15.333984 24.009766 C 15.437234 23.998891 15.53926 23.998426 15.638672 24.007812 z M 32.361328 24.007812 C 32.460697 23.998357 32.562891 23.999016 32.666016 24.009766 C 33.489016 24.101766 34.081234 24.843016 33.990234 25.666016 L 32.990234 34.666016 C 32.904234 35.433016 32.255953 36 31.501953 36 C 31.445953 36 31.390984 35.996234 31.333984 35.990234 C 30.510984 35.898234 29.918766 35.156984 30.009766 34.333984 L 31.009766 25.333984 C 31.090266 24.613859 31.665744 24.073998 32.361328 24.007812 z"></path>
</svg>